<svg id="svg" version="1.1" xmlns="http://www.w3.org/2000/svg" xmlns:xlink="http://www.w3.org/1999/xlink" width="400" height="165.625" viewBox="0, 0, 400,165.625"><g id="svgg"><path id="path0" d="M-0.000 24.401 L -0.000 48.803 1.042 48.481 C 11.119 45.364,19.731 44.835,33.250 46.504 C 34.717 46.685,36.967 46.949,38.250 47.089 C 39.533 47.230,41.521 47.448,42.667 47.574 C 56.735 49.116,67.474 47.595,79.667 42.334 C 80.079 42.156,81.204 41.678,82.167 41.273 C 84.569 40.261,86.148 39.568,90.583 37.581 C 106.479 30.458,114.239 28.076,122.167 27.887 C 134.940 27.583,146.652 35.191,153.063 47.959 C 158.719 59.222,158.521 71.301,152.420 87.167 C 152.086 88.037,151.673 89.125,151.503 89.583 C 150.915 91.170,149.577 94.356,147.301 99.583 C 143.621 108.036,142.871 109.801,141.497 113.250 C 138.988 119.545,136.682 127.854,135.738 134.000 C 135.604 134.871,135.453 135.696,135.402 135.833 C 135.299 136.110,134.396 142.101,133.417 149.000 C 132.562 155.028,130.904 163.496,130.243 165.208 C 130.136 165.486,136.625 165.500,265.066 165.500 L 400.000 165.500 400.000 82.750 L 400.000 0.000 394.813 0.000 C 389.899 0.000,389.638 0.015,389.850 0.292 C 389.974 0.452,390.353 0.926,390.694 1.344 C 392.508 3.574,394.879 7.942,395.913 10.958 C 399.424 21.205,396.928 30.674,385.798 49.333 C 384.149 52.098,381.554 56.488,379.838 59.417 C 375.106 67.491,371.845 74.928,368.729 84.750 C 368.322 86.033,367.884 87.383,367.756 87.750 C 367.628 88.117,367.101 89.767,366.585 91.417 C 361.890 106.442,358.662 112.660,352.481 118.583 C 347.072 123.766,338.515 128.642,327.917 132.579 C 327.000 132.919,325.550 133.459,324.695 133.777 C 322.068 134.757,311.912 138.090,306.250 139.831 C 304.535 140.358,301.263 141.289,297.417 142.343 C 294.006 143.279,289.131 144.317,284.538 145.087 C 265.173 148.334,251.885 143.404,242.295 129.417 C 233.933 117.220,230.586 101.048,232.843 83.750 C 232.927 83.108,233.184 80.945,233.415 78.942 C 233.646 76.939,233.871 75.139,233.916 74.942 C 234.304 73.208,234.845 65.139,234.842 61.117 C 234.835 49.104,233.006 42.480,224.498 23.667 C 223.689 21.879,222.679 19.629,222.252 18.667 C 221.825 17.704,221.339 16.617,221.171 16.250 C 220.228 14.193,218.054 8.874,217.254 6.667 C 216.750 5.276,215.357 0.986,215.248 0.491 L 215.140 0.000 107.570 0.000 L 0.000 0.000 -0.000 24.401 M-0.000 163.735 L 0.000 165.500 2.458 165.497 C 3.810 165.496,4.837 165.440,4.739 165.372 C 4.641 165.305,4.003 164.878,3.322 164.423 C 2.641 163.968,1.615 163.230,1.042 162.783 L -0.000 161.970 -0.000 163.735 " stroke="none" fill="#6bdcd4" fill-rule="evenodd"></path><path id="path1" d="M215.248 0.491 C 215.357 0.986,216.750 5.276,217.254 6.667 C 218.054 8.874,220.228 14.193,221.171 16.250 C 221.339 16.617,221.825 17.704,222.252 18.667 C 222.679 19.629,223.689 21.879,224.498 23.667 C 233.006 42.480,234.835 49.104,234.842 61.117 C 234.845 65.139,234.304 73.208,233.916 74.942 C 233.871 75.139,233.646 76.939,233.415 78.942 C 233.184 80.945,232.927 83.108,232.843 83.750 C 230.586 101.048,233.933 117.220,242.295 129.417 C 251.885 143.404,265.173 148.334,284.538 145.087 C 289.131 144.317,294.006 143.279,297.417 142.343 C 301.263 141.289,304.535 140.358,306.250 139.831 C 311.953 138.077,322.074 134.755,324.737 133.762 C 325.615 133.435,327.065 132.895,327.958 132.563 C 338.509 128.645,347.081 123.758,352.481 118.583 C 358.662 112.660,361.890 106.442,366.585 91.417 C 367.101 89.767,367.628 88.117,367.756 87.750 C 367.884 87.383,368.322 86.033,368.729 84.750 C 371.845 74.928,375.106 67.491,379.838 59.417 C 381.554 56.488,384.149 52.098,385.798 49.333 C 396.928 30.674,399.424 21.205,395.913 10.958 C 394.824 7.781,392.597 3.731,390.496 1.110 L 389.607 0.000 302.374 0.000 L 215.140 0.000 215.248 0.491 M119.500 27.944 C 114.620 28.709,113.013 29.048,110.000 29.948 C 105.108 31.408,98.999 33.810,90.583 37.581 C 86.148 39.568,84.569 40.261,82.167 41.273 C 81.204 41.678,80.079 42.156,79.667 42.334 C 67.474 47.595,56.735 49.116,42.667 47.574 C 41.521 47.448,39.533 47.230,38.250 47.089 C 36.967 46.949,34.717 46.685,33.250 46.504 C 19.733 44.836,11.311 45.349,1.083 48.465 L 0.083 48.770 0.041 105.370 L -0.000 161.969 1.041 162.781 C 1.614 163.227,2.726 164.022,3.512 164.546 L 4.940 165.500 67.540 165.500 L 130.141 165.500 130.315 164.958 C 131.113 162.468,132.568 154.988,133.417 149.000 C 134.396 142.101,135.299 136.110,135.402 135.833 C 135.453 135.696,135.604 134.871,135.738 134.000 C 136.682 127.854,138.988 119.545,141.497 113.250 C 142.871 109.801,143.621 108.036,147.301 99.583 C 149.577 94.356,150.915 91.170,151.503 89.583 C 151.673 89.125,152.086 88.037,152.420 87.167 C 160.103 67.187,158.319 51.518,146.933 38.983 C 139.744 31.069,128.480 26.536,119.500 27.944 " stroke="none" fill="#54d4cc" fill-rule="evenodd"></path></g></svg>