<svg height="512" viewBox="0 0 64 64" width="512" xmlns="http://www.w3.org/2000/svg"><g fill="#4393c1"><path d="m56 29h-18v-12h7a4 4 0 0 1 3.2 1.6z"/><path d="m14 17h12v12h-12z"/><path d="m26 17h12v12h-12z"/></g><path d="m3 35a6 6 0 0 1 6-6h52a30 30 0 0 1 -30 30h-26a2 2 0 0 1 -2-2z" fill="#324d5c"/><path d="m56 62h-53a1 1 0 0 1 0-2h53a1 1 0 0 1 0 2z" fill="#4393c1"/><path d="m61 62h-1a1 1 0 0 1 0-2h1a1 1 0 0 1 0 2z" fill="#4393c1"/><circle cx="12" cy="41" fill="#f1bf37" r="3"/><path d="m57.769 28.36-8.801-10.56a4.988 4.988 0 0 0 -3.841-1.8h-27.713l-3.707-3.707a1 1 0 0 0 -1.414 1.414l2.293 2.293h-11.586a1 1 0 0 0 0 2h34v11a1 1 0 0 0 1 1h19a1 1 0 0 0 .769-1.64zm-18.769-.36v-10h6.127a2.992 2.992 0 0 1 2.3 1.08l7.438 8.92z" fill="#324d5c"/><path d="m48 25a1 1 0 0 1 -.707-.293l-2-2a1 1 0 0 1 1.414-1.414l2 2a1 1 0 0 1 -.707 1.707z" fill="#324d5c"/><circle cx="24" cy="41" fill="#f1bf37" r="3"/><circle cx="36" cy="41" fill="#f1bf37" r="3"/><circle cx="48" cy="41" fill="#f1bf37" r="3"/><path d="m23 51h-20a1 1 0 0 1 0-2h20a1 1 0 0 1 0 2z" fill="#4393c1"/><path d="m32 51h-5a1 1 0 0 1 0-2h5a1 1 0 0 1 0 2z" fill="#4393c1"/><path d="m26 29a1 1 0 0 1 -1-1v-10a1 1 0 0 1 2 0v10a1 1 0 0 1 -1 1z" fill="#324d5c"/></svg>