<?xml version="1.0" encoding="utf-8"?>
<!-- Generator: Adobe Illustrator 22.0.0, SVG Export Plug-In . SVG Version: 6.00 Build 0)  -->
<svg version="1.1" id="Layer_1" xmlns="http://www.w3.org/2000/svg" xmlns:xlink="http://www.w3.org/1999/xlink" x="0px" y="0px"
	 viewBox="0 0 512 512" style="enable-background:new 0 0 512 512;" xml:space="preserve">
<style type="text/css">
	.st0{fill:#FFC61B;}
	.st1{fill:#D48B07;}
	.st2{fill:#FCD088;}
	.st3{fill:#DDAB62;}
	.st4{fill:#FFEDB5;}
	.st5{fill:#E8CF89;}
	.st6{fill:#C18E56;}
	.st7{fill:#B27E4B;}
	.st8{fill:#6D4711;}
	.st9{fill:#FFFFFF;}
	.st10{fill:#E2E2E2;}
	.st11{fill:#5B370D;}
	.st12{fill:#2B3344;}
	.st13{fill:#121149;}
	.st14{fill:#E0E2E2;}
	.st15{fill:#C1C1C1;}
	.st16{fill:#273B7A;}
	.st17{fill:#AFAFAF;}
	.st18{fill:#8E8E8E;}
	.st19{fill:#494948;}
	.st20{fill:#383838;}
</style>
<circle class="st0" cx="256" cy="257" r="256"/>
<path class="st1" d="M248.6,235.3l50.6,273C420,487.8,512,382.7,512,256L356.4,100.4L248.6,235.3z"/>
<rect x="213.3" y="292.2" class="st2" width="85.3" height="93.5"/>
<rect x="255.4" y="292.2" class="st3" width="43.2" height="93.5"/>
<path class="st4" d="M347.5,205.4c0.5-4.2,0.7-8.4,0.7-12.5c0-54-41.3-97.7-92.2-97.7s-92.2,43.8-92.2,97.7c0,4.1,0.2,8.3,0.7,12.5
	c-8.9,2.3-13.2,16.1-9.5,30.8c3.7,14.8,14,24.9,23,22.7c0.8-0.2,1.6-0.5,2.3-0.9c16.7,33.5,44.4,60.6,75.7,60.6s59-27.1,75.7-60.6
	c0.7,0.4,1.5,0.7,2.3,0.9c9,2.3,19.3-7.9,23-22.7C360.7,221.5,356.5,207.8,347.5,205.4z"/>
<path class="st5" d="M347.5,205.4c0.5-4.2,0.7-8.4,0.7-12.5c0-54-41.3-97.7-92.2-97.7c-0.2,0-0.4,0-0.6,0v223.3c0.2,0,0.4,0,0.6,0
	c31.3,0,59-27.1,75.7-60.6c0.7,0.4,1.5,0.7,2.3,0.9c9,2.3,19.3-7.9,23-22.7C360.7,221.5,356.5,207.8,347.5,205.4z"/>
<path class="st6" d="M198.5,258.4l-24.2-58.1h-7c0,0,5,28.5,5,53.9s26.5,68.2,74.7,68.2h18.2c48.2,0,74.7-42.7,74.7-68.2
	c0-25.5,5-53.9,5-53.9h-7l-24.2,58.1l-57.9,6.6L198.5,258.4z"/>
<path class="st7" d="M337.8,200.3l-24.2,58.1l-57.9,6.6l-0.2,0v57.5h9.7c48.2,0,74.7-42.7,74.7-68.2s5-53.9,5-53.9L337.8,200.3
	L337.8,200.3z"/>
<path class="st8" d="M161.1,181.1c0,0,1.7,24.4,6,39.3l8-0.4c0,0-2-20,14.9-40.4S161.1,181.1,161.1,181.1z"/>
<path class="st9" d="M378.4,140.8c0,31.2-54.9,42.9-122.5,42.9S133.6,172,133.6,140.8S188.4,59.9,256,59.9S378.4,109.6,378.4,140.8z
	"/>
<path class="st10" d="M256,59.9c-0.2,0-0.4,0-0.6,0v123.8c0.1,0,0.3,0,0.4,0c67.6,0,122.5-11.7,122.5-42.9
	C378.4,109.6,323.6,59.9,256,59.9z"/>
<path class="st11" d="M350.9,181.1c0,0-1.7,24.4-6,39.3l-8-0.4c0,0,2-20-14.9-40.4S350.9,181.1,350.9,181.1z"/>
<path class="st12" d="M256,210.2c37.5,0,71.5-9.5,96.3-24.9c1.9-1.2,1.1-4.1-1.2-18H160.8c-2.2,13.9-3.1,16.9-1.2,18
	C184.5,200.7,218.5,210.2,256,210.2z"/>
<path class="st13" d="M351.2,167.3h-95.7v42.9c0.2,0,0.4,0,0.6,0c37.5,0,71.5-9.5,96.3-24.9C354.2,184.1,353.4,181.2,351.2,167.3z"
	/>
<path class="st8" d="M274,260.3c-12-5.8-15.7-3.3-18-0.4c-2.2-2.9-5.9-5.4-18,0.4c-12.3,6-28.6-0.9-28.6-0.9s8.7,12.6,29.9,11
	c9.1-0.7,14.7-3.5,16.6-6.3c1.9,2.8,7.5,5.6,16.6,6.3c21.2,1.6,29.9-11,29.9-11S286.3,266.2,274,260.3z"/>
<path class="st11" d="M274,260.3c-12-5.8-15.7-3.3-18-0.4c-0.2-0.2-0.4-0.5-0.6-0.7v5.6c0.2-0.2,0.4-0.4,0.6-0.7
	c1.9,2.8,7.5,5.6,16.6,6.3c21.2,1.6,29.9-11,29.9-11S286.3,266.2,274,260.3z"/>
<path class="st14" d="M356.5,364.4l-43.9-12.2l-8.3-11.6c-1.5-2.2-4.3-3-6.7-2L256,384l-41.3-45.4c-2.4-1-5.2-0.3-6.7,1.9l-8.3,11.6
	L155.4,364c-22.9,4.6-39.9,21.9-39.9,45.2V470c40.3,26.5,88.6,42,140.5,42s100.2-15.5,140.5-42v-60.9
	C396.5,385.8,379.4,369,356.5,364.4z"/>
<path class="st15" d="M356.5,364.4l-43.9-12.2l-8.3-11.6c-1.5-2.2-4.3-3-6.7-2L256,384l-0.6-0.6V512c0.2,0,0.4,0,0.6,0
	c51.9,0,100.2-15.5,140.5-42v-60.9C396.5,385.8,379.4,369,356.5,364.4z"/>
<path class="st16" d="M237.3,400.5l10.5,13.5v97.9c2.7,0.1,5.4,0.1,8.2,0.1s5.5-0.1,8.2-0.1V414l10.5-13.5L256,383.3L237.3,400.5z"
	/>
<g>
	<path class="st12" d="M256,383.3l-0.6,0.5V512c0.2,0,0.4,0,0.6,0c2.7,0,5.5-0.1,8.2-0.1V414l10.5-13.5L256,383.3z"/>
	<path class="st12" d="M147.4,380.1l53-12.4c1.6-0.4,2.6-2,2.3-3.6l-2.8-12c-0.4-1.6-2-2.6-3.6-2.3l-53,12.4c-1.6,0.4-2.6,2-2.3,3.6
		l2.8,12C144.1,379.5,145.7,380.5,147.4,380.1z"/>
</g>
<g>
	<polygon class="st0" points="152.7,360 157.1,377.8 163.1,376.4 158.6,358.6 	"/>
	<polygon class="st0" points="164.8,357.1 169.7,374.9 175.8,373.4 170.9,355.7 	"/>
</g>
<path class="st12" d="M364.6,380.1l-53-12.4c-1.6-0.4-2.6-2-2.3-3.6l2.8-12c0.4-1.6,2-2.6,3.6-2.3l53,12.4c1.6,0.4,2.6,2,2.3,3.6
	l-2.8,12C367.9,379.5,366.3,380.5,364.6,380.1z"/>
<g>
	<polygon class="st0" points="359.3,360 354.9,377.8 348.9,376.4 353.4,358.6 	"/>
	<polygon class="st0" points="347.2,357.1 342.3,374.9 336.2,373.4 341.1,355.7 	"/>
</g>
<path class="st17" d="M256,383.7l-44-51.1c-1.9-2-5.3-2-7.1,0l-17,19.3l36.7,52.7c3.1,4.5,10.1,4.6,13.4,0.2L256,383.7z"/>
<path class="st18" d="M256,383.7l44-51.1c1.9-2,5.3-2,7.1,0l17,19.3l-36.7,52.7c-3.1,4.5-10.1,4.6-13.4,0.2L256,383.7z"/>
<path class="st19" d="M350.9,185.8c-62.8-8.9-126.6-8.9-189.4-0.1c-1.5,0.2-2.8-0.8-3-2.3c-0.9-6.7-1.9-13.5-2.8-20.2
	c-0.3-2.2,1.2-4.2,3.4-4.5c64.3-9,129.5-9,193.8,0c2.2,0.3,3.7,2.3,3.4,4.5c-1,6.9-1.9,13.7-2.9,20.6
	C353.3,185.1,352.1,186,350.9,185.8z"/>
<path class="st20" d="M352.9,158.8c-32.3-4.5-64.9-6.8-97.5-6.7v27.1c31.9,0,63.8,2.2,95.5,6.7c1.2,0.2,2.4-0.7,2.6-1.9
	c1-6.9,1.9-13.7,2.9-20.6C356.6,161.1,355.1,159.1,352.9,158.8z"/>
<path class="st0" d="M159.1,174.3c-0.7,0.1-1.3,0.4-1.8,0.7c0.4,2.8,0.8,5.6,1.2,8.5c0.2,1.5,1.6,2.5,3,2.3
	c62.8-8.9,126.6-8.9,189.4,0.1c1.2,0.2,2.4-0.7,2.6-1.9c0.4-3,0.8-5.9,1.2-8.9c-0.5-0.4-1.1-0.6-1.8-0.7
	C288.6,165.3,223.4,165.3,159.1,174.3z"/>
<path class="st1" d="M352.9,174.3c-32.3-4.5-64.9-6.8-97.5-6.7v11.5c31.9,0,63.8,2.2,95.5,6.7c1.2,0.2,2.4-0.7,2.6-1.9
	c0.4-3,0.8-5.9,1.2-8.9C354.2,174.6,353.6,174.4,352.9,174.3z"/>
<path class="st19" d="M272.7,127.3c-3.1,4.5-8,7.5-13.3,8.5v-9.7h4v-6.9h-4v-3.7c6.3-1.6,11-7.2,11-14c0-8-6.5-14.4-14.4-14.4
	s-14.4,6.5-14.4,14.4c0,6.8,4.7,12.5,11,14v3.7h-4v6.9h4v9.7c-5.3-0.9-10.2-3.9-13.3-8.5l-5.7,3.9c5.1,7.4,13.5,11.8,22.4,11.8
	s17.3-4.4,22.4-11.8L272.7,127.3z M248.5,101.5c0-4.2,3.4-7.5,7.5-7.5c4.2,0,7.5,3.4,7.5,7.5s-3.4,7.5-7.5,7.5
	C251.8,109,248.5,105.7,248.5,101.5z"/>
<path class="st20" d="M272.7,127.3c-3.1,4.5-8,7.5-13.3,8.5v-9.7h4v-6.9h-4v-3.7c6.3-1.6,11-7.2,11-14c0-8-6.5-14.4-14.4-14.4
	c-0.2,0-0.4,0-0.6,0V94c0.2,0,0.4-0.1,0.6-0.1c4.2,0,7.5,3.4,7.5,7.5s-3.4,7.5-7.5,7.5c-0.2,0-0.4,0-0.6-0.1v34c0.2,0,0.4,0,0.6,0
	c8.9,0,17.3-4.4,22.4-11.8L272.7,127.3z"/>
</svg>
