<svg id="Layer_1" height="512" viewBox="0 0 128 128" width="512" xmlns="http://www.w3.org/2000/svg" data-name="Layer 1"><path d="m95.113 118.56 3.966-5.768 3.966 5.768a4.812 4.812 0 0 1 .847 2.726v.151a4.812 4.812 0 0 1 -4.812 4.812 4.812 4.812 0 0 1 -4.812-4.812v-.151a4.812 4.812 0 0 1 .845-2.726z" fill="#65aafc"/><path d="m41.445 107.023-3.966 5.768-3.966-5.768a4.812 4.812 0 0 1 -.847-2.726v-.151a4.812 4.812 0 0 1 4.812-4.812 4.812 4.812 0 0 1 4.812 4.812v.151a4.812 4.812 0 0 1 -.845 2.726z" fill="#54b88b"/><path d="m33.513 118.56 3.966-5.768 3.966 5.768a4.812 4.812 0 0 1 .847 2.726v.151a4.812 4.812 0 0 1 -4.812 4.812 4.812 4.812 0 0 1 -4.812-4.812v-.151a4.812 4.812 0 0 1 .845-2.726z" fill="#54b88b"/><path d="m72.245 107.023-3.966 5.768-3.966-5.768a4.812 4.812 0 0 1 -.847-2.726v-.151a4.812 4.812 0 0 1 4.812-4.812 4.812 4.812 0 0 1 4.812 4.812v.151a4.812 4.812 0 0 1 -.845 2.726z" fill="#ff6e6e"/><path d="m64.313 118.56 3.966-5.768 3.966 5.768a4.812 4.812 0 0 1 .847 2.726v.151a4.812 4.812 0 0 1 -4.812 4.812 4.812 4.812 0 0 1 -4.812-4.812v-.151a4.812 4.812 0 0 1 .845-2.726z" fill="#ff6e6e"/><path d="m103.044 107.023-3.966 5.768-3.966-5.768a4.812 4.812 0 0 1 -.847-2.726v-.151a4.812 4.812 0 0 1 4.812-4.812 4.812 4.812 0 0 1 4.812 4.812v.151a4.812 4.812 0 0 1 -.845 2.726z" fill="#65aafc"/><path d="m99.079 99.333a4.821 4.821 0 0 0 -1 .107 4.812 4.812 0 0 1 3.812 4.705v.151a4.813 4.813 0 0 1 -.847 2.726l-2.965 4.313 1 1.455 3.966-5.768a4.812 4.812 0 0 0 .847-2.726v-.151a4.813 4.813 0 0 0 -4.813-4.812z" fill="#3087ff"/><path d="m99.079 126.25a4.821 4.821 0 0 1 -1-.107 4.812 4.812 0 0 0 3.812-4.705v-.151a4.813 4.813 0 0 0 -.847-2.726l-2.965-4.313 1-1.455 3.966 5.768a4.812 4.812 0 0 1 .847 2.726v.151a4.813 4.813 0 0 1 -4.813 4.812z" fill="#3087ff"/><path d="m68.279 99.333a4.821 4.821 0 0 0 -1 .107 4.812 4.812 0 0 1 3.812 4.705v.151a4.813 4.813 0 0 1 -.847 2.726l-2.965 4.313 1 1.455 3.966-5.768a4.812 4.812 0 0 0 .847-2.726v-.151a4.813 4.813 0 0 0 -4.813-4.812z" fill="#e56363"/><path d="m68.279 126.25a4.821 4.821 0 0 1 -1-.107 4.812 4.812 0 0 0 3.812-4.705v-.151a4.813 4.813 0 0 0 -.847-2.726l-2.965-4.313 1-1.455 3.966 5.768a4.812 4.812 0 0 1 .847 2.726v.151a4.813 4.813 0 0 1 -4.813 4.812z" fill="#e56363"/><path d="m37.479 99.333a4.821 4.821 0 0 0 -1 .107 4.812 4.812 0 0 1 3.812 4.705v.151a4.813 4.813 0 0 1 -.847 2.726l-2.965 4.313 1 1.455 3.966-5.768a4.812 4.812 0 0 0 .847-2.726v-.151a4.813 4.813 0 0 0 -4.813-4.812z" fill="#4ba57d"/><path d="m37.479 126.25a4.821 4.821 0 0 1 -1-.107 4.812 4.812 0 0 0 3.812-4.705v-.151a4.813 4.813 0 0 0 -.847-2.726l-2.965-4.313 1-1.455 3.966 5.768a4.812 4.812 0 0 1 .847 2.726v.151a4.813 4.813 0 0 1 -4.813 4.812z" fill="#4ba57d"/><path d="m116.292 114.542h-100.017a6.316 6.316 0 0 1 -4.467-10.783l22.069-22.07a1.75 1.75 0 1 1 2.475 2.475l-22.069 22.069a2.817 2.817 0 0 0 1.992 4.809h100.017a1.75 1.75 0 0 1 0 3.5z" fill="#9b6e42"/><path d="m116.292 1.75h-62.25l-26.25 88.5 88.5-26.25z" fill="#ffca28"/><path d="m112.289 1.75h-58.247l-1.188 4.003h59.435v55.245l-83.135 24.659-1.362 4.593 88.5-26.25v-62.25z" fill="#ff8f00"/><path d="m116.292 1.75h-2.475l-28.65 28.65-28.65-28.65h-2.475l-.566 1.908 29.216 29.217-53.857 53.857-1.043 3.518 3.518-1.044 53.857-53.856 29.216 29.216 1.909-.566v-2.475l-28.65-28.65 28.65-28.65z" fill="#ff8f00"/><path d="m116.292 40.5a1.75 1.75 0 0 0 1.75-1.75v-37a1.775 1.775 0 0 0 -1.75-1.75h-62.25a1.787 1.787 0 0 0 -1.678 1.252l-6.971 23.5a1.75 1.75 0 1 0 3.355 1l6.136-20.685 27.808 27.808-51.262 51.262 10.762-36.283a1.75 1.75 0 0 0 -3.355-1l-12.597 42.473-14.431 14.432a6.316 6.316 0 0 0 4.467 10.783h17.876l-2.081 3.026a6.539 6.539 0 0 0 -1.154 3.718v.151a6.563 6.563 0 1 0 13.125 0v-.151a6.55 6.55 0 0 0 -1.154-3.718l-2.081-3.026h24.145l-2.081 3.026a6.539 6.539 0 0 0 -1.154 3.718v.151a6.563 6.563 0 1 0 13.125 0v-.151a6.537 6.537 0 0 0 -1.155-3.718l-2.08-3.026h24.145l-2.081 3.026a6.539 6.539 0 0 0 -1.154 3.718v.151a6.563 6.563 0 0 0 13.125 0v-.151a6.537 6.537 0 0 0 -1.155-3.718l-2.08-3.026h13.886a1.75 1.75 0 0 0 0-3.5h-13.887l2.081-3.027a6.537 6.537 0 0 0 1.155-3.718v-.151a6.563 6.563 0 0 0 -13.125 0v.151a6.539 6.539 0 0 0 1.154 3.718l2.081 3.027h-24.146l2.081-3.027a6.537 6.537 0 0 0 1.155-3.718v-.151a6.562 6.562 0 0 0 -13.125 0v.151a6.539 6.539 0 0 0 1.154 3.718l2.081 3.027h-24.146l2.081-3.027a6.551 6.551 0 0 0 1.153-3.717v-.151a6.562 6.562 0 0 0 -13.125 0v.151a6.539 6.539 0 0 0 1.154 3.718l2.081 3.027h-17.875a2.817 2.817 0 0 1 -1.992-4.809l14.432-14.434 88.075-26.122a1.786 1.786 0 0 0 1.252-1.678v-13.749a1.75 1.75 0 0 0 -3.5 0v9.524l-26.9-26.9 26.9-26.9v32.775a1.75 1.75 0 0 0 1.75 1.75zm-81.875 63.646a3.062 3.062 0 1 1 6.125 0v.151a3.058 3.058 0 0 1 -.542 1.735l-2.521 3.668-2.523-3.671a3.051 3.051 0 0 1 -.539-1.735zm6.125 17.292a3.063 3.063 0 0 1 -6.125 0v-.151a3.051 3.051 0 0 1 .539-1.735l2.523-3.67 2.521 3.668a3.055 3.055 0 0 1 .54 1.736zm30.8 0a3.063 3.063 0 0 1 -6.125 0v-.151a3.051 3.051 0 0 1 .539-1.735l2.523-3.67 2.522 3.67a3.049 3.049 0 0 1 .54 1.735zm30.8 0a3.063 3.063 0 0 1 -6.125 0v-.151a3.051 3.051 0 0 1 .539-1.735l2.523-3.67 2.522 3.67a3.049 3.049 0 0 1 .54 1.735zm-6.125-17.292a3.063 3.063 0 0 1 6.125 0v.151a3.049 3.049 0 0 1 -.54 1.735l-2.523 3.668-2.523-3.671a3.051 3.051 0 0 1 -.539-1.735zm-30.8 0a3.063 3.063 0 0 1 6.125 0v.151a3.049 3.049 0 0 1 -.54 1.735l-2.523 3.668-2.523-3.671a3.051 3.051 0 0 1 -.539-1.735zm47.759-40.987-79.076 23.453 51.267-51.262zm-54.709-59.659h53.8l-26.9 26.9z"/><path d="m42.795 39.665a1.768 1.768 0 0 0 .5.072 1.749 1.749 0 0 0 1.677-1.252l1-3.369a1.75 1.75 0 0 0 -3.355-1l-1 3.369a1.75 1.75 0 0 0 1.178 2.18z"/></svg>