<?xml version="1.0" encoding="utf-8"?>
<!-- Generator: Adobe Illustrator 22.0.0, SVG Export Plug-In . SVG Version: 6.00 Build 0)  -->
<svg version="1.1" id="Layer_1" xmlns="http://www.w3.org/2000/svg" xmlns:xlink="http://www.w3.org/1999/xlink" x="0px" y="0px"
	 viewBox="0 0 512 512" style="enable-background:new 0 0 512 512;" xml:space="preserve">
<style type="text/css">
	.st0{fill:#FFC61B;}
	.st1{fill:#D48B07;}
	.st2{fill:#FCD088;}
	.st3{fill:#DDAB62;}
	.st4{fill:#FFEDB5;}
	.st5{fill:#E8CF89;}
	.st6{fill:#6D4711;}
	.st7{fill:#FFFFFF;}
	.st8{fill:#D3D3D3;}
	.st9{fill:#51310B;}
	.st10{fill:#2B3344;}
	.st11{fill:#1E2530;}
	.st12{fill:#494948;}
	.st13{fill:#353535;}
	.st14{fill:#E0E2E2;}
	.st15{fill:#C6C6C6;}
	.st16{fill:#273B7A;}
	.st17{fill:#121149;}
	.st18{fill:#535B68;}
</style>
<circle class="st0" cx="256" cy="256" r="256"/>
<path class="st1" d="M215.8,365.3l109.9,137.1c102-28.8,178.2-119.3,185.7-228.6L361.1,105.3L215.8,365.3z"/>
<rect x="213.3" y="292.2" class="st2" width="85.3" height="93.5"/>
<rect x="255.4" y="292.2" class="st3" width="43.2" height="93.5"/>
<path class="st4" d="M347.5,205.4c0.5-4.2,0.7-8.4,0.7-12.5c0-54-41.3-97.7-92.2-97.7s-92.2,43.8-92.2,97.7c0,4.1,0.2,8.3,0.7,12.5
	c-8.9,2.3-13.2,16.1-9.5,30.8c3.7,14.8,14,24.9,23,22.7c0.8-0.2,1.6-0.5,2.3-0.9c16.7,33.5,44.4,60.6,75.7,60.6s59-27.1,75.7-60.6
	c0.7,0.4,1.5,0.7,2.3,0.9c9,2.3,19.3-7.9,23-22.7C360.7,221.5,356.5,207.8,347.5,205.4z"/>
<path class="st5" d="M347.5,205.4c0.5-4.2,0.7-8.4,0.7-12.5c0-54-41.3-97.7-92.2-97.7c-0.2,0-0.4,0-0.6,0v223.3c0.2,0,0.4,0,0.6,0
	c31.3,0,59-27.1,75.7-60.6c0.7,0.4,1.5,0.7,2.3,0.9c9,2.3,19.3-7.9,23-22.7C360.7,221.5,356.5,207.8,347.5,205.4z"/>
<path class="st6" d="M161.1,181.1c0,0,1.7,24.4,6,39.3l8-0.4c0,0-2-20,14.9-40.4S161.1,181.1,161.1,181.1z"/>
<path class="st7" d="M378.4,140.8c0,31.2-54.9,42.9-122.5,42.9S133.6,172,133.6,140.8S188.4,59.9,256,59.9S378.4,109.6,378.4,140.8z
	"/>
<path class="st8" d="M256,59.9c-0.2,0-0.4,0-0.6,0v123.8c0.1,0,0.3,0,0.4,0c67.6,0,122.5-11.7,122.5-42.9
	C378.4,109.6,323.6,59.9,256,59.9z"/>
<path class="st9" d="M350.9,181.1c0,0-1.7,24.4-6,39.3l-8-0.4c0,0,2-20-14.9-40.4S350.9,181.1,350.9,181.1z"/>
<path class="st10" d="M256,210.2c37.5,0,71.5-9.5,96.3-24.9c1.9-1.2,1.1-4.1-1.2-18H160.8c-2.2,13.9-3.1,16.9-1.2,18
	C184.5,200.7,218.5,210.2,256,210.2z"/>
<path class="st11" d="M351.2,167.3h-95.7v42.9c0.2,0,0.4,0,0.6,0c37.5,0,71.5-9.5,96.3-24.9C354.2,184.1,353.4,181.2,351.2,167.3z"
	/>
<path class="st6" d="M274,270.6c-12-5.8-15.7-3.3-18-0.4c-2.2-2.9-5.9-5.4-18,0.4c-12.3,6-28.6-0.9-28.6-0.9s8.7,12.6,29.9,11
	c9.1-0.7,14.7-3.5,16.6-6.3c1.9,2.8,7.5,5.6,16.6,6.3c21.2,1.6,29.9-11,29.9-11S286.3,276.6,274,270.6z"/>
<path class="st9" d="M274,270.6c-12-5.8-15.7-3.3-18-0.4c-0.2-0.2-0.4-0.5-0.6-0.7v5.6c0.2-0.2,0.4-0.4,0.6-0.7
	c1.9,2.8,7.5,5.6,16.6,6.3c21.2,1.6,29.9-11,29.9-11S286.3,276.6,274,270.6z"/>
<path class="st12" d="M352.9,158.8c-18.8-2.6-37.7-4.5-56.6-5.5c-2.2-9.1-19.4-16.2-40.3-16.2c-20.9,0-38.1,7.1-40.3,16.2
	c-18.9,1.1-37.8,2.9-56.6,5.5c-2.2,0.3-3.7,2.3-3.4,4.5c0.9,6.7,1.9,13.5,2.8,20.2c0.2,1.5,1.6,2.5,3,2.3
	c62.8-8.9,126.6-8.9,189.4,0.1c1.2,0.2,2.4-0.7,2.6-1.9c1-6.9,1.9-13.7,2.9-20.6C356.6,161.1,355.1,159.1,352.9,158.8z"/>
<path class="st13" d="M352.9,158.8c-18.8-2.6-37.7-4.5-56.6-5.5c-2.2-9.1-19.4-16.2-40.3-16.2c-0.2,0-0.4,0-0.6,0v42
	c31.9,0,63.8,2.2,95.5,6.7c1.2,0.2,2.4-0.7,2.6-1.9c1-6.9,1.9-13.7,2.9-20.6C356.6,161.1,355.1,159.1,352.9,158.8z"/>
<path class="st0" d="M281.9,153.1h-19.8c-1.1-4.3-3.4-7.3-6.1-7.3s-5,3-6.1,7.3h-19.8v5.3h5.1v4.3h6.2v4.3h9.8
	c1.2,2.4,2.9,3.8,4.8,3.8s3.6-1.5,4.8-3.8h9.8v-4.3h6.2v-4.3h5.1L281.9,153.1L281.9,153.1z"/>
<path class="st1" d="M262.1,153.1c-1.1-4.3-3.4-7.3-6.1-7.3c-0.2,0-0.4,0-0.6,0.1v24.8c0.2,0,0.4,0.1,0.6,0.1c1.9,0,3.6-1.5,4.8-3.8
	h9.8v-4.3h6.2v-4.3h5.1v-5.3L262.1,153.1L262.1,153.1L262.1,153.1z"/>
<path class="st14" d="M356.5,364.4l-43.9-12.2l-8.3-11.6c-1.5-2.2-4.3-3-6.7-2L256,356.5l-41.3-17.9c-2.4-1-5.2-0.3-6.7,1.9
	l-8.3,11.6L155.4,364c-22.9,4.6-39.9,21.9-39.9,45.2v60.3c40.3,26.7,88.6,42.3,140.5,42.3c43.9,0,85.2-11.1,121.2-30.7
	c6.6-4.1,13-8.3,19.3-12.4v-59.4C396.5,385.8,379.4,369,356.5,364.4z"/>
<path class="st15" d="M356.5,364.4l-43.9-12.2l-8.3-11.6c-1.5-2.2-4.3-3-6.7-2L256,356.5l-0.6-0.2v155.5c0.2,0,0.4,0,0.6,0
	c43.9,0,85.2-11.1,121.2-30.7c6.6-4.1,13-8.3,19.3-12.4v-59.4C396.5,385.8,379.4,369,356.5,364.4z"/>
<path class="st7" d="M300.4,401.7L256,357.4l-44.4,44.3l-11.9-49.5l-14.4,6.3l11.6,146.4c19,4.5,38.7,6.9,59.1,6.9
	c25.4,0,49.8-3.7,73-10.6l-2.3-142.2l-14.1-6.7L300.4,401.7z"/>
<path class="st8" d="M329,501.1l-2.3-142.2l-14.1-6.7l-12.1,49.5L256,357.4l-0.6,0.6v153.7c0.2,0,0.4,0,0.6,0
	C281.4,511.7,305.8,508,329,501.1z"/>
<path class="st16" d="M237.3,375.5l10.5,13.5v101.6c2.7,0.1,5.4,0.1,8.2,0.1s5.5-0.1,8.2-0.1V389l10.5-13.5L256,358.3L237.3,375.5z"
	/>
<path class="st17" d="M256,358.3l-0.6,0.5v131.9c0.2,0,0.4,0,0.6,0c2.7,0,5.5-0.1,8.2-0.1V389l10.5-13.5L256,358.3z"/>
<g>
	<path class="st18" d="M357.8,362l-45.2-9.8l-56.5,127.4l-56.4-127.4l-45.5,9.8c-23,4.6-39.6,24.8-39.6,48.3v59.2
		C155.1,496.3,203.7,512,256,512c52.3,0,100.9-15.7,141.4-42.6v-59.2C397.4,386.8,380.8,366.6,357.8,362z"/>
	<path class="st18" d="M357.8,362l-45.2-9.8l-56.5,127.4l-0.6-1.5V512c0.2,0,0.4,0,0.6,0c52.3,0,100.9-15.7,141.4-42.6v-59.2
		C397.4,386.8,380.8,366.6,357.8,362z"/>
</g>
<path class="st11" d="M312.5,352.2l13.1,18.2c1.7,2.3,1.4,5.6-0.8,7.4L309,391.2c-2.8,2.4-2.5,6.9,0.7,8.8l11.6,7
	c3.1,1.9,3.5,6.1,1,8.6l-66.2,63.9L312.5,352.2z"/>
<g>
	<path class="st10" d="M199.7,352.2l-13.1,18.2c-1.7,2.3-1.4,5.6,0.8,7.4l15.7,13.3c2.8,2.4,2.5,6.9-0.7,8.8l-11.6,7
		c-3.1,1.9-3.5,6.1-1,8.6l66.1,63.9L199.7,352.2z"/>
	<path class="st10" d="M147.4,380.1l53-12.4c1.6-0.4,2.6-2,2.3-3.6l-2.8-12c-0.4-1.6-2-2.6-3.6-2.3l-53,12.4c-1.6,0.4-2.6,2-2.3,3.6
		l2.8,12C144.1,379.5,145.7,380.5,147.4,380.1z"/>
</g>
<g>
	<polygon class="st0" points="152.7,360 157.1,377.8 163.1,376.4 158.6,358.6 	"/>
	<polygon class="st0" points="164.8,357.1 169.7,374.9 175.8,373.4 170.9,355.7 	"/>
	<polygon class="st0" points="177.5,354.2 182.8,371.8 190.5,370 185.9,352.2 	"/>
</g>
<path class="st10" d="M364.6,380.1l-53-12.4c-1.6-0.4-2.6-2-2.3-3.6l2.8-12c0.4-1.6,2-2.6,3.6-2.3l53,12.4c1.6,0.4,2.6,2,2.3,3.6
	l-2.8,12C367.9,379.5,366.3,380.5,364.6,380.1z"/>
<g>
	<polygon class="st0" points="359.3,360 354.9,377.8 348.9,376.4 353.4,358.6 	"/>
	<polygon class="st0" points="347.2,357.1 342.3,374.9 336.2,373.4 341.1,355.7 	"/>
	<polygon class="st0" points="334.5,354.2 329.2,371.8 321.5,370 326.1,352.2 	"/>
</g>
</svg>
