<svg id="Layer_1" height="512" viewBox="0 0 128 128" width="512" xmlns="http://www.w3.org/2000/svg" data-name="Layer 1"><path d="m64 27.259a11.413 11.413 0 0 1 8.1 3.353l10.7-10.7-18.166-18.162h-37.592l28.858 28.863a11.413 11.413 0 0 1 8.1-3.354z" fill="#ff6e6e"/><path d="m72.1 46.8a11.449 11.449 0 0 1 -16.191 0l-10.709 10.7 18.166 18.167h37.592z" fill="#ff6e6e"/><path d="m72.1 30.613a11.449 11.449 0 0 1 0 16.191l10.7 10.696 18.162-18.162v-37.588z" fill="#ffca28"/><path d="m96.333 6.375v32.967l-15.85 15.85 2.313 2.312 18.162-18.162v-37.592z" fill="#ff8f00"/><path d="m31.667 6.375h32.967l15.849 15.85 2.313-2.313-18.162-18.162h-37.592z" fill="#e56363"/><path d="m96.333 71.042h-32.967l-15.849-15.85-2.313 2.312 18.162 18.163h37.592z" fill="#e56363"/><path d="m55.9 30.613-10.7-10.7-18.158 18.162v37.592l28.858-28.867a11.449 11.449 0 0 1 0-16.191z" fill="#ffca28"/><circle cx="64" cy="38.708" fill="#54b88b" r="11.449"/><path d="m64 27.259a11.494 11.494 0 0 0 -1.5.109 11.437 11.437 0 0 1 0 22.679 11.444 11.444 0 1 0 1.5-22.788z" fill="#4ba57d"/><path d="m55.9 46.8-10.7 10.7 18.166 18.167.434-25.519a11.4 11.4 0 0 1 -7.9-3.348z" fill="#e56363"/><path d="m75.44 38.9a11.4 11.4 0 0 1 -3.34 7.9l10.7 10.7 18.162-18.162z" fill="#ff8f00"/><path d="m72.1 30.613 10.7-10.7-18.166-18.163-.434 25.519a11.41 11.41 0 0 1 7.9 3.344z" fill="#e56363"/><path d="m55.9 30.613-10.7-10.7-18.158 18.162 25.519.437a11.41 11.41 0 0 1 3.339-7.899z" fill="#ff8f00"/><path d="m69.083 126.25h-10.166v-55.033l4.449 4.45h5.717z" fill="#596675"/><path d="m31.667 71.042v-32.967l15.85-15.85-2.313-2.313-18.162 18.163v37.592z" fill="#ff8f00"/><path d="m61.709 79.667h7.374v-4h-5.717l-4.449-4.45v5.657z" fill="#373f47"/><path d="m100.958 11.5a1.75 1.75 0 0 0 1.75-1.75v-8a1.75 1.75 0 0 0 -2.987-1.237l-16.921 16.925-16.929-16.925a1.806 1.806 0 0 0 -1.237-.513h-37.592a1.75 1.75 0 0 0 -1.242 2.987l16.929 16.925-16.929 16.925a1.8 1.8 0 0 0 -.513 1.237v37.593a1.75 1.75 0 0 0 2.992 1.233l16.921-16.921 11.967 11.962v54.309a1.75 1.75 0 0 0 1.75 1.75h10.166a1.75 1.75 0 0 0 1.75-1.75v-17.875a1.75 1.75 0 0 0 -3.5 0v16.125h-6.666v-49.058l1.461 1.458a1.785 1.785 0 0 0 1.238.513h3.967v10.837a1.75 1.75 0 1 0 3.5 0v-10.833h30.125a1.75 1.75 0 0 0 1.237-2.987l-16.924-16.93 16.929-16.921a1.8 1.8 0 0 0 .513-1.237v-17.117a1.75 1.75 0 1 0 -3.5 0v15.337l-22.1-.379a13.277 13.277 0 0 0 -2.614-6.488l24.709-24.72v3.775a1.75 1.75 0 0 0 1.75 1.75zm-35.008 36.71a9.094 9.094 0 0 1 -2.116.188 9.639 9.639 0 1 1 2.116-.188zm6.065-19.991a13.2 13.2 0 0 0 -6.041-2.557l.338-19.762 14.009 14.012zm-9.161-24.719-.379 22.1a13.21 13.21 0 0 0 -6.49 2.614l-9.544-9.544-15.174-15.17zm-9.344 27.193a13.2 13.2 0 0 0 -2.557 6.041l-19.753-.334 14-14.013zm-24.718 9.162 22.105.379a13.222 13.222 0 0 0 2.614 6.489l-24.719 24.718zm27.193 9.345a13.2 13.2 0 0 0 6.041 2.557l-.339 19.757-14.008-14.014zm13.1 24.719h-3.938l.379-22.1a13.235 13.235 0 0 0 6.489-2.619l24.718 24.717zm13.715-18.89-8.307-8.307a13.2 13.2 0 0 0 2.556-6.04l19.759.339z"/><path d="m69.083 95.536a1.75 1.75 0 0 0 -1.75 1.75v2.053a1.75 1.75 0 1 0 3.5 0v-2.053a1.75 1.75 0 0 0 -1.75-1.75z"/></svg>