<svg id="Layer_5" enable-background="new 0 0 64 64" height="512" viewBox="0 0 64 64" width="512" xmlns="http://www.w3.org/2000/svg"><path d="m32 2c9.53 0 17.31 7.41 17.94 16.78-5.01-1.74-11.22-2.78-17.94-2.78s-12.93 1.04-17.94 2.78c.63-9.37 8.41-16.78 17.94-16.78z" fill="#69d6f4"/><path d="m53 20c-.96-.43-1.98-.84-3.06-1.22-5.01-1.74-11.22-2.78-17.94-2.78s-12.93 1.04-17.94 2.78c-1.08.38-2.1.79-3.06 1.22-5.56 2.55-9 6.09-9 10 0 2.16 1.06 4.22 2.95 6.05 2.53 2.46 6.56 4.53 11.54 5.93-.32-.31-.49-.64-.49-.98l-3-6-1-2c0-1.65 2.7-3.6 6.98-5.02 3.5-1.17 8.05-1.98 13.02-1.98s9.52.81 13.02 1.98c4.28 1.42 6.98 3.37 6.98 5.02l-1 2-3 6c0 .34-.17.67-.5.98 4.98-1.4 9.02-3.46 11.55-5.93 1.89-1.83 2.95-3.89 2.95-6.05 0-3.91-3.44-7.45-9-10z" fill="#ffeaa7"/><path d="m45.02 27.98c4.28 1.42 6.98 3.37 6.98 5.02l-1 2-3 6c0-1.83-4.92-3.37-11.63-3.85-.41-.03-.84-.05-1.26-.07-1.01-.05-2.05-.08-3.11-.08s-2.1.03-3.11.08c-.42.02-.85.04-1.26.07-6.71.48-11.63 2.02-11.63 3.85l-3-6-1-2c0-1.65 2.7-3.6 6.98-5.02 3.5-1.17 8.05-1.98 13.02-1.98s9.52.81 13.02 1.98z" fill="#ccd1d9"/><path d="m27.63 37.16c-1.1.49-4.37 2.33-5.35 7.01l-.05-.01c-2.79-.54-4.85-1.3-5.74-2.18-.32-.31-.49-.64-.49-.98 0-1.83 4.92-3.37 11.63-3.85z" fill="#838f9b"/><path d="m47.5 41.98c-.89.88-2.93 1.64-5.7 2.18l-.08.02c-.97-4.69-4.25-6.53-5.35-7.02v-.01c6.71.48 11.63 2.02 11.63 3.85 0 .34-.17.67-.5.98z" fill="#838f9b"/><path d="m41.72 44.18c-.97-4.69-4.25-6.53-5.35-7.02v-.01h-8.74v.01c-1.1.49-4.37 2.33-5.35 7.01-.18.85-.28 1.79-.28 2.83 0 7 10 14 10 14s10-7 10-14c0-1.04-.1-1.98-.28-2.82z" fill="#ff826e"/><path d="m35.11 37.08c.53.4 2.89 2.37 2.89 5.92 0 5-6 8-6 8s-6-3-6-8c0-3.55 2.36-5.52 2.89-5.92 1.01-.05 2.05-.08 3.11-.08s2.1.03 3.11.08z" fill="#fcd770"/><path d="m50.856 18.017c-1.003-9.594-9.142-17.017-18.856-17.017s-17.853 7.423-18.856 17.017c-7.424 2.716-12.144 7.033-12.144 11.983 0 5.373 5.601 10.174 14.989 12.878.983.839 2.722 1.528 5.155 2.069-.086.644-.144 1.319-.144 2.053 0 7.436 10.001 14.521 10.427 14.819l.573.402.573-.401c.426-.299 10.427-7.384 10.427-14.82 0-.734-.058-1.409-.144-2.053 2.433-.542 4.173-1.229 5.156-2.069 9.387-2.705 14.988-7.505 14.988-12.878 0-4.95-4.72-9.267-12.144-11.983zm.722 18.063 5.114.639c-1.88 1.375-4.326 2.602-7.235 3.603zm-3.707 2.942c-2.973-2.34-11.126-3.022-15.871-3.022s-12.898.682-15.871 3.022l-3.105-6.209c.474-1.872 7.739-5.813 18.976-5.813s18.502 3.941 18.976 5.813zm-18.612-.958c.874-.038 1.779-.064 2.741-.064.961 0 1.866.026 2.739.064.67.572 2.261 2.217 2.261 4.936 0 3.57-3.696 6.08-5 6.854-1.304-.774-5-3.284-5-6.854 0-2.723 1.585-4.362 2.259-4.936zm-14.716 2.258c-2.909-1.001-5.354-2.228-7.235-3.603l5.114-.639zm16.457-15.311c-4.254.094-8.365.78-11.746 1.829l-6.478-6.478c4.924-1.983 11.312-3.239 18.224-3.35zm2 0v-7.999c6.912.111 13.3 1.367 18.224 3.351l-6.478 6.478c-3.381-1.05-7.492-1.736-11.746-1.83zm-1-22.011c8.384 0 15.468 6.176 16.763 14.318-4.806-1.47-10.54-2.318-16.763-2.318s-11.957.848-16.763 2.318c1.295-8.142 8.379-14.318 16.763-14.318zm-29 27c0-3.344 2.993-6.439 7.815-8.771l6.346 6.346c-3.734 1.472-6.161 3.421-6.161 5.425v.236l.473.947-6.193.774c-1.474-1.561-2.28-3.245-2.28-4.957zm14 11c0-.592 2.434-1.763 7.047-2.454-.983 1.048-1.928 2.5-2.498 4.454-3.729-.836-4.549-1.826-4.549-2zm15 18.755c-2.066-1.579-9-7.286-9-12.755 0-3.597 1.304-5.845 2.627-7.207-.369.902-.627 1.966-.627 3.207 0 5.554 6.285 8.761 6.553 8.895l.447.223.447-.224c.268-.133 6.553-3.34 6.553-8.894 0-1.241-.258-2.305-.627-3.207 1.323 1.362 2.627 3.61 2.627 7.207 0 5.469-6.934 11.176-9 12.755zm10.452-16.756c-.571-1.953-1.515-3.405-2.498-4.453 4.612.691 7.046 1.862 7.046 2.454 0 .173-.818 1.164-4.548 1.999zm16.267-8.042-6.193-.774.474-.947v-.236c0-2.004-2.427-3.953-6.16-5.426l6.346-6.346c4.821 2.333 7.814 5.428 7.814 8.772 0 1.712-.806 3.396-2.281 4.957z"/><path d="m32 5c-.712 0-1.433.051-2.141.151l.281 1.98c.616-.087 1.242-.131 1.86-.131z"/><path d="m18.444 13.571 1.807.857c1.582-3.331 4.511-5.842 8.034-6.89l-.57-1.918c-4.067 1.211-7.445 4.109-9.271 7.951z"/><path d="m45 61h2v2h-2z"/><path d="m45 46h2v13h-2z"/><path d="m49 57h2v2h-2z"/><path d="m49 44h2v11h-2z"/><path d="m17 61h2v2h-2z"/><path d="m17 46h2v13h-2z"/><path d="m13 57h2v2h-2z"/><path d="m13 44h2v11h-2z"/><path d="m41 59h2v2h-2z"/><path d="m41 55h2v2h-2z"/><path d="m21 59h2v2h-2z"/><path d="m21 55h2v2h-2z"/></svg>